<?xml version="1.0" encoding="UTF-8"?>
<svg id="Layer_1" xmlns="http://www.w3.org/2000/svg" version="1.1" viewBox="0 0 31 23">
  <!-- Generator: Adobe Illustrator 29.3.0, SVG Export Plug-In . SVG Version: 2.1.0 Build 146)  -->
  <defs>
    <style>
      .st0 {
        fill: #008d77;
      }
    </style>
  </defs>
  <path class="st0" d="M6.3,0c2.1,0,3.7.8,5,2.3,1.3,1.5,1.9,3.4,1.9,5.8s-.9,6.1-2.8,8.8c-1.9,2.7-4.2,4.7-6.9,6.1l-.5-1c1.2-.9,2.2-2.1,3.1-3.5.9-1.4,1.5-3.1,1.9-5.2l-1.8-.4c-2-.4-3.5-1.3-4.6-2.4C.5,9.2,0,7.8,0,6.1S.6,2.8,1.8,1.7C3,.6,4.5,0,6.3,0ZM24.1,0c2.1,0,3.7.8,5,2.3,1.3,1.5,1.9,3.4,1.9,5.8s-.9,6.1-2.8,8.8c-1.9,2.7-4.2,4.7-6.9,6.1l-.5-1c1.2-.9,2.2-2.1,3.1-3.5.9-1.4,1.5-3.1,1.9-5.2l-1.8-.4c-2-.4-3.5-1.3-4.6-2.4-1.1-1.2-1.6-2.7-1.6-4.4s.6-3.3,1.8-4.4C20.8.6,22.3,0,24.1,0Z"/>
</svg>